<svg width="113" height="52" viewBox="0 0 113 52" fill="none" xmlns="http://www.w3.org/2000/svg">
<g clip-path="url(#clip0_1032_3356)">
<path d="M63.8629 10.5349V14.1354H66.6697C68.2303 14.1354 69.0288 13.4924 69.0288 12.3516C69.0288 11.1943 68.2169 10.5349 66.6697 10.5349H63.8629ZM63.8629 5.71108V8.9654H66.7525C68.0811 8.9654 68.7605 8.3719 68.7605 7.34648C68.7605 6.35403 68.0648 5.71108 66.7525 5.71108H63.8629ZM61.9707 4.1416H66.9013C69.5092 4.1416 70.6722 5.44728 70.6722 7.16513C70.6722 8.45431 69.9402 9.3314 68.9628 9.62812V9.66109C70.0923 9.95786 70.954 10.9668 70.954 12.4538C70.954 14.5178 69.4101 15.7081 66.7855 15.7081H61.9707V4.1416Z" fill="#D71F85"/>
<path d="M74.4362 15.7075H72.6436V7.14796H74.4199V8.43719C74.6352 8.10745 74.8505 7.82391 75.1654 7.59307C75.6787 7.21393 76.1628 7.08203 76.8752 7.08203C77.0905 7.08203 77.3058 7.09851 77.4384 7.13148V8.86582C77.0078 8.83285 76.8055 8.83285 76.5902 8.83285C75.6755 8.83285 74.4329 9.14606 74.4329 10.8804V15.7075H74.4362Z" fill="#D71F85"/>
<path d="M79.7352 10.5507H84.5002C84.4007 9.27803 83.4367 8.45044 82.1412 8.45044C80.9117 8.45374 79.8844 9.24507 79.7352 10.5507ZM82.29 15.8889C79.8979 15.8889 77.9062 14.1875 77.9062 11.3618C77.9062 8.65157 79.9472 6.9502 82.1742 6.9502C84.3975 6.9502 86.3757 8.4867 86.3757 11.5597V11.9718H79.7519C79.9175 13.4589 81.0312 14.3656 82.343 14.3656C83.2047 14.3656 84.0696 14.0853 84.5002 13.2577H86.2929C85.7763 15.0943 83.9669 15.8889 82.29 15.8889Z" fill="#D71F85"/>
<path d="M90.8053 14.4348C92.0846 14.4348 93.1118 13.6567 93.1118 12.1367V11.5267C90.2887 11.8729 89.1252 12.1696 89.1252 13.1951C89.1289 13.9864 89.8246 14.4348 90.8053 14.4348ZM93.2309 14.5832C92.684 15.4108 91.7698 15.8889 90.4742 15.8889C88.8801 15.8889 87.3525 15.0118 87.3525 13.2775C87.3525 11.4113 88.9132 10.798 91.1732 10.4354L93.1151 10.1221V10.0397C93.1151 8.83292 92.4524 8.38776 91.3387 8.38776C90.2585 8.38776 89.5795 8.89885 89.3805 9.85834H87.6376C87.8696 8.07456 89.4303 6.9502 91.4052 6.9502C93.3964 6.9502 94.891 7.74482 94.8743 10.0891L94.8412 13.9864C94.8412 14.2502 94.858 14.6624 94.924 15.7043H93.2639L93.2309 14.5832Z" fill="#D71F85"/>
<path d="M96.2002 12.9975H97.9264C98.0924 14.0065 98.9736 14.4351 100.018 14.4351C100.896 14.4351 101.777 14.0889 101.777 13.3437C101.777 12.6513 101.131 12.3677 99.918 12.1534L99.0698 12.0051C97.4097 11.7083 96.3955 10.9302 96.3955 9.60801C96.3955 7.9396 97.9231 6.93066 99.7488 6.93066C101.541 6.93066 103.069 7.87367 103.285 9.57505H101.575C101.359 8.78042 100.663 8.40124 99.6995 8.40124C98.7848 8.40124 98.0886 8.81339 98.0886 9.45963C98.0886 10.0564 98.6025 10.2872 99.6162 10.4686L100.465 10.617C102.307 10.9466 103.503 11.6589 103.503 13.1624C103.503 14.9297 101.81 15.9023 99.9841 15.9023C98.0426 15.9056 96.3988 14.9626 96.2002 12.9975Z" fill="#D71F85"/>
<path d="M105.449 13.426V8.58575H103.954V7.14813H105.449V5.10059H107.225V7.14813H109.282V8.58575H107.225V13.1787C107.225 14.1052 107.539 14.2701 108.205 14.2701H109.286V15.6912C108.656 15.7241 108.408 15.7241 107.742 15.7241C106.376 15.7208 105.449 15.3087 105.449 13.426Z" fill="#D71F85"/>
<path d="M61.1924 26.0547H63.0678C63.2831 27.5253 64.4461 28.2342 65.924 28.2342C67.3358 28.2342 68.4625 27.6077 68.4625 26.5163C68.4625 25.5404 67.5148 25.0623 66.0565 24.749L64.8437 24.4853C62.6502 24.0072 61.5402 22.9817 61.5402 21.2969C61.5402 19.2658 63.4487 17.8447 65.7914 17.8447C68.1807 17.8447 69.9599 19.1174 70.1757 21.3298H68.2998C68.1342 20.189 67.1865 19.4636 65.7914 19.4636C64.4959 19.4636 63.4189 20.1593 63.4189 21.1485C63.4189 22.0223 64.0323 22.4048 65.3608 22.685L66.7559 22.9817C68.9294 23.4467 70.3742 24.4523 70.3742 26.3185C70.3742 28.7123 68.2007 29.8531 65.924 29.8531C63.3994 29.8564 61.4077 28.6166 61.1924 26.0547Z" fill="#D71F85"/>
<path d="M71.335 25.313C71.335 22.7346 73.2601 20.9014 75.6359 20.9014C77.6109 20.9014 79.3701 22.1906 79.5723 24.1062H77.7964C77.5476 23.0808 76.6334 22.4708 75.6224 22.4708C74.1776 22.4708 73.1806 23.6776 73.1806 25.313C73.1806 27.0144 74.2111 28.2706 75.6224 28.2706C76.6199 28.2706 77.4979 27.7101 77.7964 26.6187H79.5723C79.2905 28.6498 77.4783 29.8401 75.6025 29.8401C73.2104 29.8401 71.335 28.053 71.335 25.313Z" fill="#D71F85"/>
<path d="M82.7536 29.6554H80.9609V21.0991H82.7369V22.3883C82.9522 22.0586 83.1679 21.7783 83.486 21.5442C83.9994 21.1651 84.4797 21.0332 85.1954 21.0332C85.4112 21.0332 85.6265 21.0497 85.759 21.0826V22.817C85.3279 22.784 85.1294 22.784 84.9141 22.784C84.0026 22.784 82.7568 23.0972 82.7568 24.8316V29.6554H82.7536Z" fill="#D71F85"/>
<path d="M88.0488 24.5019H92.8134C92.7143 23.2292 91.7499 22.4049 90.4543 22.4049C89.2281 22.4049 88.2013 23.1962 88.0488 24.5019ZM90.6069 29.8401C88.2176 29.8401 86.2227 28.1387 86.2227 25.313C86.2227 22.6027 88.2641 20.9014 90.4906 20.9014C92.7176 20.9014 94.6925 22.4379 94.6925 25.5108V25.923H88.0683C88.2343 27.41 89.3476 28.32 90.6566 28.32C91.5211 28.32 92.3828 28.0398 92.8171 27.2122H94.6098C94.0927 29.0454 92.2833 29.8401 90.6069 29.8401Z" fill="#D71F85"/>
<path d="M97.4292 24.5019H102.194C102.095 23.2292 101.131 22.4049 99.8352 22.4049C98.6089 22.4049 97.5785 23.1962 97.4292 24.5019ZM99.9873 29.8401C97.5952 29.8401 95.6035 28.1387 95.6035 25.313C95.6035 22.6027 97.645 20.9014 99.8715 20.9014C102.095 20.9014 104.073 22.4379 104.073 25.5108V25.923H97.4492C97.6147 27.41 98.7285 28.32 100.04 28.32C100.905 28.32 101.767 28.0398 102.198 27.2122H103.99C103.474 29.0454 101.664 29.8401 99.9873 29.8401Z" fill="#D71F85"/>
<path d="M107.341 29.6554H105.548V21.0992H107.324V22.1576C107.854 21.3663 108.769 20.9014 109.899 20.9014C111.808 20.9014 113.004 22.1081 113.004 24.3206V29.6554H111.211V24.5349C111.211 23.2622 110.515 22.4544 109.335 22.4544C108.272 22.4544 107.344 23.2655 107.344 24.9504V29.6554H107.341Z" fill="#D71F85"/>
<path d="M61.1924 40.0049H63.0678C63.2831 41.4755 64.4461 42.1844 65.924 42.1844C67.3358 42.1844 68.4625 41.5579 68.4625 40.4665C68.4625 39.4906 67.5148 39.0125 66.0565 38.6992L64.8437 38.4355C62.6502 37.9574 61.5402 36.932 61.5402 35.2471C61.5402 33.216 63.4487 31.7949 65.7914 31.7949C68.1807 31.7949 69.9599 33.0676 70.1757 35.28H68.2998C68.1342 34.1392 67.1865 33.4138 65.7914 33.4138C64.4959 33.4138 63.4189 34.1096 63.4189 35.0987C63.4189 35.9725 64.0323 36.355 65.3608 36.6352L66.7559 36.932C68.9294 37.3969 70.3742 38.4025 70.3742 40.2687C70.3742 42.6625 68.2007 43.8033 65.924 43.8033C63.3994 43.8066 61.4077 42.5669 61.1924 40.0049Z" fill="#D71F85"/>
<path d="M78.3896 39.0986L76.4314 33.9946L74.4565 39.0986H78.3896ZM79.0025 40.734H73.8403L72.7266 43.6091H70.7852L75.4172 32.0459H77.5247L82.1572 43.6091H80.1163L79.0025 40.734Z" fill="#D71F85"/>
<path d="M29.1373 29.4218C29.321 29.4218 29.4699 29.2732 29.4699 29.0898C29.4699 28.9064 29.321 28.7578 29.1373 28.7578C28.9536 28.7578 28.8047 28.9064 28.8047 29.0898C28.8047 29.2732 28.9536 29.4218 29.1373 29.4218Z" fill="#D71F85"/>
<path d="M29.1376 32.6924C29.4213 32.6924 29.6512 32.4629 29.6512 32.1797C29.6512 31.8965 29.4213 31.667 29.1376 31.667C28.854 31.667 28.624 31.8965 28.624 32.1797C28.624 32.4629 28.854 32.6924 29.1376 32.6924Z" fill="#D71F85"/>
<path d="M29.1374 35.9863C29.5342 35.9863 29.8559 35.6652 29.8559 35.269C29.8559 34.8729 29.5342 34.5518 29.1374 34.5518C28.7406 34.5518 28.4189 34.8729 28.4189 35.269C28.4189 35.6652 28.7406 35.9863 29.1374 35.9863Z" fill="#D71F85"/>
<path d="M29.1376 39.2742C29.644 39.2742 30.0545 38.8643 30.0545 38.3588C30.0545 37.8532 29.644 37.4434 29.1376 37.4434C28.6312 37.4434 28.2207 37.8532 28.2207 38.3588C28.2207 38.8643 28.6312 39.2742 29.1376 39.2742Z" fill="#D71F85"/>
<path d="M29.1381 42.5559C29.7511 42.5559 30.248 42.0598 30.248 41.4479C30.248 40.8359 29.7511 40.3398 29.1381 40.3398C28.5252 40.3398 28.0283 40.8359 28.0283 41.4479C28.0283 42.0598 28.5252 42.5559 29.1381 42.5559Z" fill="#D71F85"/>
<path d="M29.1381 45.8325C29.8541 45.8325 30.4345 45.2531 30.4345 44.5383C30.4345 43.8236 29.8541 43.2441 29.1381 43.2441C28.4222 43.2441 27.8418 43.8236 27.8418 44.5383C27.8418 45.2531 28.4222 45.8325 29.1381 45.8325Z" fill="#D71F85"/>
<path d="M29.1378 49.0968C29.9507 49.0968 30.6096 48.4389 30.6096 47.6278C30.6096 46.8162 29.9507 46.1582 29.1378 46.1582C28.3249 46.1582 27.666 46.8162 27.666 47.6278C27.666 48.4389 28.3249 49.0968 29.1378 49.0968Z" fill="#D71F85"/>
<path d="M29.1379 51.8144C29.7443 51.8144 30.2358 51.3237 30.2358 50.7183C30.2358 50.1128 29.7443 49.6221 29.1379 49.6221C28.5316 49.6221 28.04 50.1128 28.04 50.7183C28.04 51.3237 28.5316 51.8144 29.1379 51.8144Z" fill="#D71F85"/>
<path d="M32.2333 29.6026C32.517 29.6026 32.7469 29.373 32.7469 29.0899C32.7469 28.8067 32.517 28.5771 32.2333 28.5771C31.9497 28.5771 31.7197 28.8067 31.7197 29.0899C31.7197 29.373 31.9497 29.6026 32.2333 29.6026Z" fill="#D71F85"/>
<path d="M35.3269 29.8066C35.7237 29.8066 36.0453 29.4855 36.0453 29.0893C36.0453 28.6932 35.7237 28.3721 35.3269 28.3721C34.9301 28.3721 34.6084 28.6932 34.6084 29.0893C34.6084 29.4855 34.9301 29.8066 35.3269 29.8066Z" fill="#D71F85"/>
<path d="M38.4227 30.0046C38.9291 30.0046 39.3397 29.5948 39.3397 29.0892C39.3397 28.5837 38.9291 28.1738 38.4227 28.1738C37.9163 28.1738 37.5059 28.5837 37.5059 29.0892C37.5059 29.5948 37.9163 30.0046 38.4227 30.0046Z" fill="#D71F85"/>
<path d="M41.5171 30.1974C42.13 30.1974 42.6269 29.7013 42.6269 29.0894C42.6269 28.4775 42.13 27.9814 41.5171 27.9814C40.9041 27.9814 40.4072 28.4775 40.4072 29.0894C40.4072 29.7013 40.9041 30.1974 41.5171 30.1974Z" fill="#D71F85"/>
<path d="M44.6118 30.3843C45.3278 30.3843 45.9081 29.8049 45.9081 29.0901C45.9081 28.3753 45.3278 27.7959 44.6118 27.7959C43.8958 27.7959 43.3154 28.3753 43.3154 29.0901C43.3154 29.8049 43.8958 30.3843 44.6118 30.3843Z" fill="#D71F85"/>
<path d="M47.7064 30.5589C48.5192 30.5589 49.1781 29.9011 49.1781 29.0895C49.1781 28.278 48.5192 27.6201 47.7064 27.6201C46.8935 27.6201 46.2344 28.278 46.2344 29.0895C46.2344 29.9011 46.8935 30.5589 47.7064 30.5589Z" fill="#D71F85"/>
<path d="M50.803 30.1853C51.4094 30.1853 51.9009 29.6946 51.9009 29.0892C51.9009 28.4839 51.4094 27.9932 50.803 27.9932C50.1966 27.9932 49.7051 28.4839 49.7051 29.0892C49.7051 29.6946 50.1966 30.1853 50.803 30.1853Z" fill="#D71F85"/>
<path d="M29.1373 26.2385C29.2697 26.2385 29.377 26.1314 29.377 25.9992C29.377 25.8669 29.2697 25.7598 29.1373 25.7598C29.0048 25.7598 28.8975 25.8669 28.8975 25.9992C28.8975 26.1314 29.0048 26.2385 29.1373 26.2385Z" fill="#D71F85"/>
<path d="M32.2327 26.46C32.4874 26.46 32.6939 26.2538 32.6939 25.9995C32.6939 25.7452 32.4874 25.5391 32.2327 25.5391C31.978 25.5391 31.7715 25.7452 31.7715 25.9995C31.7715 26.2538 31.978 26.46 32.2327 26.46Z" fill="#D71F85"/>
<path d="M35.3275 26.6752C35.7015 26.6752 36.0046 26.3726 36.0046 25.9992C36.0046 25.6259 35.7015 25.3232 35.3275 25.3232C34.9535 25.3232 34.6504 25.6259 34.6504 25.9992C34.6504 26.3726 34.9535 26.6752 35.3275 26.6752Z" fill="#D71F85"/>
<path d="M38.4226 26.8853C38.9128 26.8853 39.3101 26.4886 39.3101 25.9993C39.3101 25.51 38.9128 25.1133 38.4226 25.1133C37.9325 25.1133 37.5352 25.51 37.5352 25.9993C37.5352 26.4886 37.9325 26.8853 38.4226 26.8853Z" fill="#D71F85"/>
<path d="M41.5168 27.0955C42.1232 27.0955 42.6147 26.6047 42.6147 25.9994C42.6147 25.394 42.1232 24.9033 41.5168 24.9033C40.9105 24.9033 40.4189 25.394 40.4189 25.9994C40.4189 26.6047 40.9105 27.0955 41.5168 27.0955Z" fill="#D71F85"/>
<path d="M44.6125 27.2823C45.3219 27.2823 45.8969 26.7082 45.8969 26C45.8969 25.2919 45.3219 24.7178 44.6125 24.7178C43.9032 24.7178 43.3281 25.2919 43.3281 26C43.3281 26.7082 43.9032 27.2823 44.6125 27.2823Z" fill="#D71F85"/>
<path d="M50.802 27.2823C51.5111 27.2823 52.0863 26.7082 52.0863 26C52.0863 25.2919 51.5111 24.7178 50.802 24.7178C50.0923 24.7178 49.5176 25.2919 49.5176 26C49.5176 26.7082 50.0923 27.2823 50.802 27.2823Z" fill="#D71F85"/>
<path d="M47.7061 27.4569C48.5124 27.4569 49.1658 26.8044 49.1658 25.9994C49.1658 25.1945 48.5124 24.542 47.7061 24.542C46.8997 24.542 46.2461 25.1945 46.2461 25.9994C46.2461 26.8044 46.8997 27.4569 47.7061 27.4569Z" fill="#D71F85"/>
<path d="M32.2326 32.8265C32.5904 32.8265 32.8804 32.537 32.8804 32.1798C32.8804 31.8227 32.5904 31.5332 32.2326 31.5332C31.8749 31.5332 31.585 31.8227 31.585 32.1798C31.585 32.537 31.8749 32.8265 32.2326 32.8265Z" fill="#D71F85"/>
<path d="M32.2331 36.0788C32.6812 36.0788 33.0443 35.7162 33.0443 35.2689C33.0443 34.8216 32.6812 34.459 32.2331 34.459C31.7851 34.459 31.4219 34.8216 31.4219 35.2689C31.4219 35.7162 31.7851 36.0788 32.2331 36.0788Z" fill="#D71F85"/>
<path d="M32.2334 39.3494C32.7815 39.3494 33.2257 38.9058 33.2257 38.3588C33.2257 37.8116 32.7815 37.3682 32.2334 37.3682C31.6854 37.3682 31.2412 37.8116 31.2412 38.3588C31.2412 38.9058 31.6854 39.3494 32.2334 39.3494Z" fill="#D71F85"/>
<path d="M32.2331 42.6138C32.878 42.6138 33.4009 42.0919 33.4009 41.448C33.4009 40.8042 32.878 40.2822 32.2331 40.2822C31.5882 40.2822 31.0654 40.8042 31.0654 41.448C31.0654 42.0919 31.5882 42.6138 32.2331 42.6138Z" fill="#D71F85"/>
<path d="M32.2328 45.8793C32.9747 45.8793 33.576 45.2788 33.576 44.5383C33.576 43.7976 32.9747 43.1973 32.2328 43.1973C31.491 43.1973 30.8896 43.7976 30.8896 44.5383C30.8896 45.2788 31.491 45.8793 32.2328 45.8793Z" fill="#D71F85"/>
<path d="M32.2329 49.1534C33.0681 49.1534 33.7452 48.4774 33.7452 47.6435C33.7452 46.8096 33.0681 46.1338 32.2329 46.1338C31.3978 46.1338 30.7207 46.8096 30.7207 47.6435C30.7207 48.4774 31.3978 49.1534 32.2329 49.1534Z" fill="#D71F85"/>
<path d="M32.2325 51.5179C32.6775 51.5179 33.0382 51.1576 33.0382 50.7133C33.0382 50.2695 32.6775 49.9092 32.2325 49.9092C31.7875 49.9092 31.4268 50.2695 31.4268 50.7133C31.4268 51.1576 31.7875 51.5179 32.2325 51.5179Z" fill="#D71F85"/>
<path d="M35.3269 32.9899C35.7749 32.9899 36.1381 32.6273 36.1381 32.18C36.1381 31.7327 35.7749 31.3701 35.3269 31.3701C34.8789 31.3701 34.5156 31.7327 34.5156 32.18C34.5156 32.6273 34.8789 32.9899 35.3269 32.9899Z" fill="#D71F85"/>
<path d="M38.4229 33.1707C38.9709 33.1707 39.4151 32.7271 39.4151 32.1801C39.4151 31.6329 38.9709 31.1895 38.4229 31.1895C37.8749 31.1895 37.4307 31.6329 37.4307 32.1801C37.4307 32.7271 37.8749 33.1707 38.4229 33.1707Z" fill="#D71F85"/>
<path d="M41.5163 33.3453C42.1613 33.3453 42.6841 32.8233 42.6841 32.1794C42.6841 31.5356 42.1613 31.0137 41.5163 31.0137C40.8715 31.0137 40.3486 31.5356 40.3486 32.1794C40.3486 32.8233 40.8715 33.3453 41.5163 33.3453Z" fill="#D71F85"/>
<path d="M44.6118 33.5208C45.3536 33.5208 45.955 32.9204 45.955 32.1799C45.955 31.4392 45.3536 30.8389 44.6118 30.8389C43.8699 30.8389 43.2686 31.4392 43.2686 32.1799C43.2686 32.9204 43.8699 33.5208 44.6118 33.5208Z" fill="#D71F85"/>
<path d="M47.7221 33.6894C48.5572 33.6894 49.2343 33.0135 49.2343 32.1797C49.2343 31.3459 48.5572 30.6699 47.7221 30.6699C46.8869 30.6699 46.21 31.3459 46.21 32.1797C46.21 33.0135 46.8869 33.6894 47.7221 33.6894Z" fill="#D71F85"/>
<path d="M50.7971 32.9838C51.2421 32.9838 51.603 32.6237 51.603 32.1794C51.603 31.7351 51.2421 31.375 50.7971 31.375C50.3521 31.375 49.9912 31.7351 49.9912 32.1794C49.9912 32.6237 50.3521 32.9838 50.7971 32.9838Z" fill="#D71F85"/>
<path d="M35.3272 36.2137C35.8498 36.2137 36.2734 35.7907 36.2734 35.2689C36.2734 34.7472 35.8498 34.3242 35.3272 34.3242C34.8045 34.3242 34.3809 34.7472 34.3809 35.2689C34.3809 35.7907 34.8045 36.2137 35.3272 36.2137Z" fill="#D71F85"/>
<path d="M35.3268 39.4497C35.9301 39.4497 36.4191 38.9614 36.4191 38.3591C36.4191 37.7568 35.9301 37.2686 35.3268 37.2686C34.7234 37.2686 34.2344 37.7568 34.2344 38.3591C34.2344 38.9614 34.7234 39.4497 35.3268 39.4497Z" fill="#D71F85"/>
<path d="M35.3273 42.7012C36.0204 42.7012 36.5823 42.1402 36.5823 41.4482C36.5823 40.7563 36.0204 40.1953 35.3273 40.1953C34.6341 40.1953 34.0723 40.7563 34.0723 41.4482C34.0723 42.1402 34.6341 42.7012 35.3273 42.7012Z" fill="#D71F85"/>
<path d="M35.3274 45.9432C36.1048 45.9432 36.7349 45.3141 36.7349 44.538C36.7349 43.762 36.1048 43.1328 35.3274 43.1328C34.5501 43.1328 33.9199 43.762 33.9199 44.538C33.9199 45.3141 34.5501 45.9432 35.3274 45.9432Z" fill="#D71F85"/>
<path d="M35.3275 49.155C36.1724 49.155 36.8572 48.4711 36.8572 47.628C36.8572 46.7844 36.1724 46.1006 35.3275 46.1006C34.4827 46.1006 33.7979 46.7844 33.7979 47.628C33.7979 48.4711 34.4827 49.155 35.3275 49.155Z" fill="#D71F85"/>
<path d="M35.3272 51.0276C35.4982 51.0276 35.6368 50.8893 35.6368 50.7184C35.6368 50.548 35.4982 50.4092 35.3272 50.4092C35.1562 50.4092 35.0176 50.548 35.0176 50.7184C35.0176 50.8893 35.1562 51.0276 35.3272 51.0276Z" fill="#D71F85"/>
<path d="M38.4225 36.3599C39.0257 36.3599 39.5148 35.8716 39.5148 35.2693C39.5148 34.667 39.0257 34.1787 38.4225 34.1787C37.8191 34.1787 37.3301 34.667 37.3301 35.2693C37.3301 35.8716 37.8191 36.3599 38.4225 36.3599Z" fill="#D71F85"/>
<path d="M41.5167 36.5215C42.2098 36.5215 42.7717 35.9605 42.7717 35.2685C42.7717 34.5766 42.2098 34.0156 41.5167 34.0156C40.8236 34.0156 40.2617 34.5766 40.2617 35.2685C40.2617 35.9605 40.8236 36.5215 41.5167 36.5215Z" fill="#D71F85"/>
<path d="M44.6116 36.6746C45.389 36.6746 46.0191 36.0455 46.0191 35.2694C46.0191 34.4934 45.389 33.8643 44.6116 33.8643C43.8343 33.8643 43.2041 34.4934 43.2041 35.2694C43.2041 36.0455 43.8343 36.6746 44.6116 36.6746Z" fill="#D71F85"/>
<path d="M47.7065 36.7965C48.5515 36.7965 49.236 36.1128 49.236 35.2694C49.236 34.4259 48.5515 33.7422 47.7065 33.7422C46.8616 33.7422 46.1768 34.4259 46.1768 35.2694C46.1768 36.1128 46.8616 36.7965 47.7065 36.7965Z" fill="#D71F85"/>
<path d="M50.8029 35.5782C50.974 35.5782 51.1126 35.4397 51.1126 35.2691C51.1126 35.0984 50.974 34.96 50.8029 34.96C50.6317 34.96 50.4932 35.0984 50.4932 35.2691C50.4932 35.4397 50.6317 35.5782 50.8029 35.5782Z" fill="#D71F85"/>
<path d="M38.4222 39.5768C39.0961 39.5768 39.6423 39.0314 39.6423 38.3587C39.6423 37.686 39.0961 37.1406 38.4222 37.1406C37.7484 37.1406 37.2021 37.686 37.2021 38.3587C37.2021 39.0314 37.7484 39.5768 38.4222 39.5768Z" fill="#D71F85"/>
<path d="M38.4222 42.8067C39.1736 42.8067 39.7828 42.1985 39.7828 41.4483C39.7828 40.698 39.1736 40.0898 38.4222 40.0898C37.6707 40.0898 37.0615 40.698 37.0615 41.4483C37.0615 42.1985 37.6707 42.8067 38.4222 42.8067Z" fill="#D71F85"/>
<path d="M38.4222 46.0366C39.2508 46.0366 39.9225 45.3661 39.9225 44.5388C39.9225 43.7116 39.2508 43.041 38.4222 43.041C37.5936 43.041 36.9219 43.7116 36.9219 44.5388C36.9219 45.3661 37.5936 46.0366 38.4222 46.0366Z" fill="#D71F85"/>
<path d="M38.4221 48.7681C39.0543 48.7681 39.5668 48.2565 39.5668 47.625C39.5668 46.9941 39.0543 46.4824 38.4221 46.4824C37.7898 46.4824 37.2773 46.9941 37.2773 47.625C37.2773 48.2565 37.7898 48.7681 38.4221 48.7681Z" fill="#D71F85"/>
<path d="M41.5169 39.7178C42.2684 39.7178 42.8776 39.1096 42.8776 38.3594C42.8776 37.6092 42.2684 37.001 41.5169 37.001C40.7654 37.001 40.1562 37.6092 40.1562 38.3594C40.1562 39.1096 40.7654 39.7178 41.5169 39.7178Z" fill="#D71F85"/>
<path d="M44.6116 39.8569C45.4402 39.8569 46.1119 39.1863 46.1119 38.3591C46.1119 37.5319 45.4402 36.8613 44.6116 36.8613C43.7831 36.8613 43.1113 37.5319 43.1113 38.3591C43.1113 39.1863 43.7831 39.8569 44.6116 39.8569Z" fill="#D71F85"/>
<path d="M47.7044 39.5015C48.3364 39.5015 48.8489 38.9899 48.8489 38.3587C48.8489 37.7275 48.3364 37.2158 47.7044 37.2158C47.072 37.2158 46.5596 37.7275 46.5596 38.3587C46.5596 38.9899 47.072 39.5015 47.7044 39.5015Z" fill="#D71F85"/>
<path d="M41.5164 42.9234C42.3323 42.9234 42.9938 42.2631 42.9938 41.4485C42.9938 40.6339 42.3323 39.9736 41.5164 39.9736C40.7005 39.9736 40.0391 40.6339 40.0391 41.4485C40.0391 42.2631 40.7005 42.9234 41.5164 42.9234Z" fill="#D71F85"/>
<path d="M41.5173 45.9372C42.2911 45.9372 42.9184 45.3109 42.9184 44.5384C42.9184 43.7659 42.2911 43.1396 41.5173 43.1396C40.7435 43.1396 40.1162 43.7659 40.1162 44.5384C40.1162 45.3109 40.7435 45.9372 41.5173 45.9372Z" fill="#D71F85"/>
<path d="M44.612 42.8473C45.3858 42.8473 46.0131 42.2211 46.0131 41.4486C46.0131 40.676 45.3858 40.0498 44.612 40.0498C43.8382 40.0498 43.2109 40.676 43.2109 41.4486C43.2109 42.2211 43.8382 42.8473 44.612 42.8473Z" fill="#D71F85"/>
<path d="M47.7064 41.6757C47.8319 41.6757 47.9342 41.5738 47.9342 41.4482C47.9342 41.3226 47.8319 41.2207 47.7064 41.2207C47.5804 41.2207 47.4785 41.3226 47.4785 41.4482C47.4785 41.5738 47.5804 41.6757 47.7064 41.6757Z" fill="#D71F85"/>
<path d="M41.5169 47.8549C41.6427 47.8549 41.7447 47.7532 41.7447 47.6274C41.7447 47.5021 41.6427 47.4004 41.5169 47.4004C41.391 47.4004 41.2891 47.5021 41.2891 47.6274C41.2891 47.7532 41.391 47.8549 41.5169 47.8549Z" fill="#D71F85"/>
<path d="M44.6121 44.8822C44.8023 44.8822 44.9566 44.7283 44.9566 44.5383C44.9566 44.3483 44.8023 44.1943 44.6121 44.1943C44.4218 44.1943 44.2676 44.3483 44.2676 44.5383C44.2676 44.7283 44.4218 44.8822 44.6121 44.8822Z" fill="#D71F85"/>
<path d="M22.9478 29.4218C23.1315 29.4218 23.2804 29.2732 23.2804 29.0898C23.2804 28.9064 23.1315 28.7578 22.9478 28.7578C22.7642 28.7578 22.6152 28.9064 22.6152 29.0898C22.6152 29.2732 22.7642 29.4218 22.9478 29.4218Z" fill="#D71F85"/>
<path d="M19.8534 29.6026C20.137 29.6026 20.367 29.373 20.367 29.0899C20.367 28.8067 20.137 28.5771 19.8534 28.5771C19.5697 28.5771 19.3398 28.8067 19.3398 29.0899C19.3398 29.373 19.5697 29.6026 19.8534 29.6026Z" fill="#D71F85"/>
<path d="M16.7585 29.8066C17.1553 29.8066 17.4769 29.4855 17.4769 29.0893C17.4769 28.6932 17.1553 28.3721 16.7585 28.3721C16.3617 28.3721 16.04 28.6932 16.04 29.0893C16.04 29.4855 16.3617 29.8066 16.7585 29.8066Z" fill="#D71F85"/>
<path d="M13.663 30.0046C14.1694 30.0046 14.5799 29.5948 14.5799 29.0892C14.5799 28.5837 14.1694 28.1738 13.663 28.1738C13.1566 28.1738 12.7461 28.5837 12.7461 29.0892C12.7461 29.5948 13.1566 30.0046 13.663 30.0046Z" fill="#D71F85"/>
<path d="M10.5688 30.1974C11.1817 30.1974 11.6787 29.7013 11.6787 29.0894C11.6787 28.4775 11.1817 27.9814 10.5688 27.9814C9.95586 27.9814 9.45898 28.4775 9.45898 29.0894C9.45898 29.7013 9.95586 30.1974 10.5688 30.1974Z" fill="#D71F85"/>
<path d="M7.47407 30.3843C8.19002 30.3843 8.77041 29.8049 8.77041 29.0901C8.77041 28.3753 8.19002 27.7959 7.47407 27.7959C6.75813 27.7959 6.17773 28.3753 6.17773 29.0901C6.17773 29.8049 6.75813 30.3843 7.47407 30.3843Z" fill="#D71F85"/>
<path d="M4.38002 30.5589C5.19286 30.5589 5.85184 29.9011 5.85184 29.0895C5.85184 28.278 5.19286 27.6201 4.38002 27.6201C3.56716 27.6201 2.9082 28.278 2.9082 29.0895C2.9082 29.9011 3.56716 30.5589 4.38002 30.5589Z" fill="#D71F85"/>
<path d="M1.28344 30.1853C1.88979 30.1853 2.38133 29.6946 2.38133 29.0892C2.38133 28.4839 1.88979 27.9932 1.28344 27.9932C0.677088 27.9932 0.185547 28.4839 0.185547 29.0892C0.185547 29.6946 0.677088 30.1853 1.28344 30.1853Z" fill="#D71F85"/>
<path d="M22.9481 32.6915C23.2318 32.6915 23.4617 32.4619 23.4617 32.1787C23.4617 31.8956 23.2318 31.666 22.9481 31.666C22.6645 31.666 22.4346 31.8956 22.4346 32.1787C22.4346 32.4619 22.6645 32.6915 22.9481 32.6915Z" fill="#D71F85"/>
<path d="M22.948 35.9863C23.3448 35.9863 23.6664 35.6652 23.6664 35.269C23.6664 34.8729 23.3448 34.5518 22.948 34.5518C22.5511 34.5518 22.2295 34.8729 22.2295 35.269C22.2295 35.6652 22.5511 35.9863 22.948 35.9863Z" fill="#D71F85"/>
<path d="M22.9481 39.2742C23.4545 39.2742 23.865 38.8643 23.865 38.3588C23.865 37.8532 23.4545 37.4434 22.9481 37.4434C22.4417 37.4434 22.0312 37.8532 22.0312 38.3588C22.0312 38.8643 22.4417 39.2742 22.9481 39.2742Z" fill="#D71F85"/>
<path d="M22.9487 42.5559C23.5616 42.5559 24.0585 42.0598 24.0585 41.4479C24.0585 40.8359 23.5616 40.3398 22.9487 40.3398C22.3357 40.3398 21.8389 40.8359 21.8389 41.4479C21.8389 42.0598 22.3357 42.5559 22.9487 42.5559Z" fill="#D71F85"/>
<path d="M22.9477 45.8325C23.6636 45.8325 24.244 45.2531 24.244 44.5383C24.244 43.8236 23.6636 43.2441 22.9477 43.2441C22.2318 43.2441 21.6514 43.8236 21.6514 44.5383C21.6514 45.2531 22.2318 45.8325 22.9477 45.8325Z" fill="#D71F85"/>
<path d="M22.9484 49.0968C23.7613 49.0968 24.4202 48.4389 24.4202 47.6278C24.4202 46.8162 23.7613 46.1582 22.9484 46.1582C22.1355 46.1582 21.4766 46.8162 21.4766 47.6278C21.4766 48.4389 22.1355 49.0968 22.9484 49.0968Z" fill="#D71F85"/>
<path d="M22.9485 51.8144C23.5548 51.8144 24.0464 51.3237 24.0464 50.7183C24.0464 50.1128 23.5548 49.6221 22.9485 49.6221C22.3421 49.6221 21.8506 50.1128 21.8506 50.7183C21.8506 51.3237 22.3421 51.8144 22.9485 51.8144Z" fill="#D71F85"/>
<path d="M26.0425 29.3294C26.1749 29.3294 26.2823 29.2222 26.2823 29.09C26.2823 28.9578 26.1749 28.8506 26.0425 28.8506C25.9101 28.8506 25.8027 28.9578 25.8027 29.09C25.8027 29.2222 25.9101 29.3294 26.0425 29.3294Z" fill="#D71F85"/>
<path d="M26.0423 32.6406C26.297 32.6406 26.5035 32.4344 26.5035 32.1802C26.5035 31.9259 26.297 31.7197 26.0423 31.7197C25.7876 31.7197 25.5811 31.9259 25.5811 32.1802C25.5811 32.4344 25.7876 32.6406 26.0423 32.6406Z" fill="#D71F85"/>
<path d="M26.0424 35.9447C26.4163 35.9447 26.7194 35.6421 26.7194 35.2687C26.7194 34.8954 26.4163 34.5928 26.0424 34.5928C25.6684 34.5928 25.3652 34.8954 25.3652 35.2687C25.3652 35.6421 25.6684 35.9447 26.0424 35.9447Z" fill="#D71F85"/>
<path d="M26.0428 39.2447C26.5329 39.2447 26.9303 38.848 26.9303 38.3587C26.9303 37.8693 26.5329 37.4727 26.0428 37.4727C25.5526 37.4727 25.1553 37.8693 25.1553 38.3587C25.1553 38.848 25.5526 39.2447 26.0428 39.2447Z" fill="#D71F85"/>
<path d="M26.0422 42.5447C26.6486 42.5447 27.1401 42.054 27.1401 41.4486C27.1401 40.8432 26.6486 40.3525 26.0422 40.3525C25.4359 40.3525 24.9443 40.8432 24.9443 41.4486C24.9443 42.054 25.4359 42.5447 26.0422 42.5447Z" fill="#D71F85"/>
<path d="M26.0422 45.8204C26.7515 45.8204 27.3266 45.2463 27.3266 44.5381C27.3266 43.83 26.7515 43.2559 26.0422 43.2559C25.3329 43.2559 24.7578 43.83 24.7578 44.5381C24.7578 45.2463 25.3329 45.8204 26.0422 45.8204Z" fill="#D71F85"/>
<path d="M26.0422 52.0003C26.7515 52.0003 27.3266 51.4259 27.3266 50.7179C27.3266 50.0099 26.7515 49.4355 26.0422 49.4355C25.3329 49.4355 24.7578 50.0099 24.7578 50.7179C24.7578 51.4259 25.3329 52.0003 26.0422 52.0003Z" fill="#D71F85"/>
<path d="M26.0429 49.085C26.8491 49.085 27.5028 48.4322 27.5028 47.6276C27.5028 46.8225 26.8491 46.1699 26.0429 46.1699C25.2366 46.1699 24.583 46.8225 24.583 47.6276C24.583 48.4322 25.2366 49.085 26.0429 49.085Z" fill="#D71F85"/>
<path d="M19.8528 32.8255C20.2105 32.8255 20.5005 32.536 20.5005 32.1789C20.5005 31.8218 20.2105 31.5322 19.8528 31.5322C19.4951 31.5322 19.2051 31.8218 19.2051 32.1789C19.2051 32.536 19.4951 32.8255 19.8528 32.8255Z" fill="#D71F85"/>
<path d="M16.7585 32.9889C17.2066 32.9889 17.5698 32.6263 17.5698 32.179C17.5698 31.7317 17.2066 31.3691 16.7585 31.3691C16.3105 31.3691 15.9473 31.7317 15.9473 32.179C15.9473 32.6263 16.3105 32.9889 16.7585 32.9889Z" fill="#D71F85"/>
<path d="M13.6631 33.1697C14.2111 33.1697 14.6554 32.7261 14.6554 32.1791C14.6554 31.632 14.2111 31.1885 13.6631 31.1885C13.1151 31.1885 12.6709 31.632 12.6709 32.1791C12.6709 32.7261 13.1151 33.1697 13.6631 33.1697Z" fill="#D71F85"/>
<path d="M10.5691 33.3442C11.214 33.3442 11.7368 32.8223 11.7368 32.1785C11.7368 31.5346 11.214 31.0127 10.5691 31.0127C9.92414 31.0127 9.40137 31.5346 9.40137 32.1785C9.40137 32.8223 9.92414 33.3442 10.5691 33.3442Z" fill="#D71F85"/>
<path d="M7.47407 33.5198C8.21587 33.5198 8.81728 32.9195 8.81728 32.1788C8.81728 31.4383 8.21587 30.8379 7.47407 30.8379C6.73222 30.8379 6.13086 31.4383 6.13086 32.1788C6.13086 32.9195 6.73222 33.5198 7.47407 33.5198Z" fill="#D71F85"/>
<path d="M4.3638 33.6885C5.199 33.6885 5.87602 33.0125 5.87602 32.1787C5.87602 31.3449 5.199 30.6689 4.3638 30.6689C3.52861 30.6689 2.85156 31.3449 2.85156 32.1787C2.85156 33.0125 3.52861 33.6885 4.3638 33.6885Z" fill="#D71F85"/>
<path d="M1.28913 32.9828C1.73412 32.9828 2.09486 32.6227 2.09486 32.1784C2.09486 31.7342 1.73412 31.374 1.28913 31.374C0.844134 31.374 0.483398 31.7342 0.483398 32.1784C0.483398 32.6227 0.844134 32.9828 1.28913 32.9828Z" fill="#D71F85"/>
<path d="M19.8533 36.0788C20.3013 36.0788 20.6645 35.7162 20.6645 35.2689C20.6645 34.8216 20.3013 34.459 19.8533 34.459C19.4052 34.459 19.042 34.8216 19.042 35.2689C19.042 35.7162 19.4052 36.0788 19.8533 36.0788Z" fill="#D71F85"/>
<path d="M19.8526 39.3494C20.4006 39.3494 20.8448 38.9058 20.8448 38.3588C20.8448 37.8116 20.4006 37.3682 19.8526 37.3682C19.3046 37.3682 18.8604 37.8116 18.8604 38.3588C18.8604 38.9058 19.3046 39.3494 19.8526 39.3494Z" fill="#D71F85"/>
<path d="M19.8533 42.6138C20.4982 42.6138 21.021 42.0919 21.021 41.448C21.021 40.8042 20.4982 40.2822 19.8533 40.2822C19.2084 40.2822 18.6855 40.8042 18.6855 41.448C18.6855 42.0919 19.2084 42.6138 19.8533 42.6138Z" fill="#D71F85"/>
<path d="M19.853 45.8793C20.5948 45.8793 21.1961 45.2788 21.1961 44.5383C21.1961 43.7976 20.5948 43.1973 19.853 43.1973C19.1111 43.1973 18.5098 43.7976 18.5098 44.5383C18.5098 45.2788 19.1111 45.8793 19.853 45.8793Z" fill="#D71F85"/>
<path d="M19.8531 49.1534C20.6882 49.1534 21.3653 48.4774 21.3653 47.6435C21.3653 46.8096 20.6882 46.1338 19.8531 46.1338C19.0178 46.1338 18.3408 46.8096 18.3408 47.6435C18.3408 48.4774 19.0178 49.1534 19.8531 49.1534Z" fill="#D71F85"/>
<path d="M19.8526 51.5179C20.2976 51.5179 20.6583 51.1576 20.6583 50.7133C20.6583 50.2695 20.2976 49.9092 19.8526 49.9092C19.4076 49.9092 19.0469 50.2695 19.0469 50.7133C19.0469 51.1576 19.4076 51.5179 19.8526 51.5179Z" fill="#D71F85"/>
<path d="M16.7588 36.2137C17.2814 36.2137 17.7051 35.7907 17.7051 35.2689C17.7051 34.7472 17.2814 34.3242 16.7588 34.3242C16.2361 34.3242 15.8125 34.7472 15.8125 35.2689C15.8125 35.7907 16.2361 36.2137 16.7588 36.2137Z" fill="#D71F85"/>
<path d="M13.6637 36.3599C14.267 36.3599 14.756 35.8716 14.756 35.2693C14.756 34.667 14.267 34.1787 13.6637 34.1787C13.0604 34.1787 12.5713 34.667 12.5713 35.2693C12.5713 35.8716 13.0604 36.3599 13.6637 36.3599Z" fill="#D71F85"/>
<path d="M10.5695 36.5215C11.2626 36.5215 11.8244 35.9605 11.8244 35.2685C11.8244 34.5766 11.2626 34.0156 10.5695 34.0156C9.87634 34.0156 9.31445 34.5766 9.31445 35.2685C9.31445 35.9605 9.87634 36.5215 10.5695 36.5215Z" fill="#D71F85"/>
<path d="M7.47393 36.6746C8.25126 36.6746 8.88141 36.0455 8.88141 35.2694C8.88141 34.4934 8.25126 33.8643 7.47393 33.8643C6.69656 33.8643 6.06641 34.4934 6.06641 35.2694C6.06641 36.0455 6.69656 36.6746 7.47393 36.6746Z" fill="#D71F85"/>
<path d="M4.37931 36.7965C5.22412 36.7965 5.909 36.1128 5.909 35.2694C5.909 34.4259 5.22412 33.7422 4.37931 33.7422C3.53448 33.7422 2.84961 34.4259 2.84961 35.2694C2.84961 36.1128 3.53448 36.7965 4.37931 36.7965Z" fill="#D71F85"/>
<path d="M1.28325 35.5782C1.45424 35.5782 1.59286 35.4397 1.59286 35.2691C1.59286 35.0984 1.45424 34.96 1.28325 34.96C1.11225 34.96 0.973633 35.0984 0.973633 35.2691C0.973633 35.4397 1.11225 35.5782 1.28325 35.5782Z" fill="#D71F85"/>
<path d="M16.7583 39.4497C17.3617 39.4497 17.8507 38.9614 17.8507 38.3591C17.8507 37.7568 17.3617 37.2686 16.7583 37.2686C16.1551 37.2686 15.666 37.7568 15.666 38.3591C15.666 38.9614 16.1551 39.4497 16.7583 39.4497Z" fill="#D71F85"/>
<path d="M16.7589 42.7012C17.452 42.7012 18.0139 42.1402 18.0139 41.4482C18.0139 40.7563 17.452 40.1953 16.7589 40.1953C16.0658 40.1953 15.5039 40.7563 15.5039 41.4482C15.5039 42.1402 16.0658 42.7012 16.7589 42.7012Z" fill="#D71F85"/>
<path d="M16.7591 45.9432C17.5364 45.9432 18.1666 45.3141 18.1666 44.538C18.1666 43.762 17.5364 43.1328 16.7591 43.1328C15.9817 43.1328 15.3516 43.762 15.3516 44.538C15.3516 45.3141 15.9817 45.9432 16.7591 45.9432Z" fill="#D71F85"/>
<path d="M16.7582 49.155C17.603 49.155 18.2879 48.4711 18.2879 47.628C18.2879 46.7844 17.603 46.1006 16.7582 46.1006C15.9134 46.1006 15.2285 46.7844 15.2285 47.628C15.2285 48.4711 15.9134 49.155 16.7582 49.155Z" fill="#D71F85"/>
<path d="M16.7588 51.0276C16.9298 51.0276 17.0684 50.8893 17.0684 50.7184C17.0684 50.548 16.9298 50.4092 16.7588 50.4092C16.5878 50.4092 16.4492 50.548 16.4492 50.7184C16.4492 50.8893 16.5878 51.0276 16.7588 51.0276Z" fill="#D71F85"/>
<path d="M13.6634 39.5768C14.3372 39.5768 14.8835 39.0314 14.8835 38.3587C14.8835 37.686 14.3372 37.1406 13.6634 37.1406C12.9896 37.1406 12.4434 37.686 12.4434 38.3587C12.4434 39.0314 12.9896 39.5768 13.6634 39.5768Z" fill="#D71F85"/>
<path d="M10.5687 39.7178C11.3201 39.7178 11.9293 39.1096 11.9293 38.3594C11.9293 37.6092 11.3201 37.001 10.5687 37.001C9.81723 37.001 9.20801 37.6092 9.20801 38.3594C9.20801 39.1096 9.81723 39.7178 10.5687 39.7178Z" fill="#D71F85"/>
<path d="M7.47398 39.8569C8.30255 39.8569 8.97427 39.1863 8.97427 38.3591C8.97427 37.5319 8.30255 36.8613 7.47398 36.8613C6.64536 36.8613 5.97363 37.5319 5.97363 38.3591C5.97363 39.1863 6.64536 39.8569 7.47398 39.8569Z" fill="#D71F85"/>
<path d="M4.38107 39.5015C5.01329 39.5015 5.52583 38.9899 5.52583 38.3587C5.52583 37.7275 5.01329 37.2158 4.38107 37.2158C3.74885 37.2158 3.23633 37.7275 3.23633 38.3587C3.23633 38.9899 3.74885 39.5015 4.38107 39.5015Z" fill="#D71F85"/>
<path d="M13.6634 42.8067C14.4149 42.8067 15.024 42.1985 15.024 41.4483C15.024 40.698 14.4149 40.0898 13.6634 40.0898C12.912 40.0898 12.3027 40.698 12.3027 41.4483C12.3027 42.1985 12.912 42.8067 13.6634 42.8067Z" fill="#D71F85"/>
<path d="M13.6634 46.0366C14.492 46.0366 15.1637 45.3661 15.1637 44.5388C15.1637 43.7116 14.492 43.041 13.6634 43.041C12.8348 43.041 12.1631 43.7116 12.1631 44.5388C12.1631 45.3661 12.8348 46.0366 13.6634 46.0366Z" fill="#D71F85"/>
<path d="M13.6633 48.7681C14.2955 48.7681 14.808 48.2565 14.808 47.625C14.808 46.9941 14.2955 46.4824 13.6633 46.4824C13.0311 46.4824 12.5186 46.9941 12.5186 47.625C12.5186 48.2565 13.0311 48.7681 13.6633 48.7681Z" fill="#D71F85"/>
<path d="M10.5691 42.9234C11.385 42.9234 12.0464 42.2631 12.0464 41.4485C12.0464 40.6339 11.385 39.9736 10.5691 39.9736C9.75324 39.9736 9.0918 40.6339 9.0918 41.4485C9.0918 42.2631 9.75324 42.9234 10.5691 42.9234Z" fill="#D71F85"/>
<path d="M7.47435 42.8473C8.2481 42.8473 8.87541 42.2211 8.87541 41.4486C8.87541 40.676 8.2481 40.0498 7.47435 40.0498C6.70055 40.0498 6.07324 40.676 6.07324 41.4486C6.07324 42.2211 6.70055 42.8473 7.47435 42.8473Z" fill="#D71F85"/>
<path d="M10.5691 45.9372C11.3429 45.9372 11.9701 45.3109 11.9701 44.5384C11.9701 43.7659 11.3429 43.1396 10.5691 43.1396C9.79528 43.1396 9.16797 43.7659 9.16797 44.5384C9.16797 45.3109 9.79528 45.9372 10.5691 45.9372Z" fill="#D71F85"/>
<path d="M10.5687 47.8549C10.6945 47.8549 10.7965 47.7532 10.7965 47.6274C10.7965 47.5021 10.6945 47.4004 10.5687 47.4004C10.4428 47.4004 10.3408 47.5021 10.3408 47.6274C10.3408 47.7532 10.4428 47.8549 10.5687 47.8549Z" fill="#D71F85"/>
<path d="M4.37921 41.6757C4.50505 41.6757 4.60706 41.5738 4.60706 41.4482C4.60706 41.3226 4.50505 41.2207 4.37921 41.2207C4.25338 41.2207 4.15137 41.3226 4.15137 41.4482C4.15137 41.5738 4.25338 41.6757 4.37921 41.6757Z" fill="#D71F85"/>
<path d="M7.47344 44.8822C7.66373 44.8822 7.81797 44.7283 7.81797 44.5383C7.81797 44.3483 7.66373 44.1943 7.47344 44.1943C7.28315 44.1943 7.12891 44.3483 7.12891 44.5383C7.12891 44.7283 7.28315 44.8822 7.47344 44.8822Z" fill="#D71F85"/>
<path d="M22.9478 23.2422C23.1315 23.2422 23.2804 23.0935 23.2804 22.9102C23.2804 22.7268 23.1315 22.5781 22.9478 22.5781C22.7642 22.5781 22.6152 22.7268 22.6152 22.9102C22.6152 23.0935 22.7642 23.2422 22.9478 23.2422Z" fill="#D71F85"/>
<path d="M22.9481 20.3331C23.2318 20.3331 23.4617 20.1035 23.4617 19.8204C23.4617 19.5372 23.2318 19.3076 22.9481 19.3076C22.6645 19.3076 22.4346 19.5372 22.4346 19.8204C22.4346 20.1035 22.6645 20.3331 22.9481 20.3331Z" fill="#D71F85"/>
<path d="M22.948 17.4482C23.3448 17.4482 23.6664 17.1271 23.6664 16.7309C23.6664 16.3348 23.3448 16.0137 22.948 16.0137C22.5511 16.0137 22.2295 16.3348 22.2295 16.7309C22.2295 17.1271 22.5511 17.4482 22.948 17.4482Z" fill="#D71F85"/>
<path d="M22.9481 14.5564C23.4545 14.5564 23.865 14.1465 23.865 13.641C23.865 13.1355 23.4545 12.7256 22.9481 12.7256C22.4417 12.7256 22.0312 13.1355 22.0312 13.641C22.0312 14.1465 22.4417 14.5564 22.9481 14.5564Z" fill="#D71F85"/>
<path d="M22.9487 11.6594C23.5616 11.6594 24.0585 11.1633 24.0585 10.5514C24.0585 9.93945 23.5616 9.44336 22.9487 9.44336C22.3357 9.44336 21.8389 9.93945 21.8389 10.5514C21.8389 11.1633 22.3357 11.6594 22.9487 11.6594Z" fill="#D71F85"/>
<path d="M22.9477 8.75538C23.6636 8.75538 24.244 8.17596 24.244 7.46119C24.244 6.74642 23.6636 6.16699 22.9477 6.16699C22.2318 6.16699 21.6514 6.74642 21.6514 7.46119C21.6514 8.17596 22.2318 8.75538 22.9477 8.75538Z" fill="#D71F85"/>
<path d="M22.9484 5.84211C23.7613 5.84211 24.4202 5.18422 24.4202 4.37271C24.4202 3.56119 23.7613 2.90332 22.9484 2.90332C22.1355 2.90332 21.4766 3.56119 21.4766 4.37271C21.4766 5.18422 22.1355 5.84211 22.9484 5.84211Z" fill="#D71F85"/>
<path d="M22.9485 2.3777C23.5548 2.3777 24.0464 1.88697 24.0464 1.28163C24.0464 0.676278 23.5548 0.185547 22.9485 0.185547C22.3421 0.185547 21.8506 0.676278 21.8506 1.28163C21.8506 1.88697 22.3421 2.3777 22.9485 2.3777Z" fill="#D71F85"/>
<path d="M19.8534 23.4229C20.137 23.4229 20.367 23.1933 20.367 22.9102C20.367 22.627 20.137 22.3975 19.8534 22.3975C19.5697 22.3975 19.3398 22.627 19.3398 22.9102C19.3398 23.1933 19.5697 23.4229 19.8534 23.4229Z" fill="#D71F85"/>
<path d="M16.7585 23.6279C17.1553 23.6279 17.4769 23.3068 17.4769 22.9106C17.4769 22.5145 17.1553 22.1934 16.7585 22.1934C16.3617 22.1934 16.04 22.5145 16.04 22.9106C16.04 23.3068 16.3617 23.6279 16.7585 23.6279Z" fill="#D71F85"/>
<path d="M13.663 23.8259C14.1694 23.8259 14.5799 23.4161 14.5799 22.9105C14.5799 22.4049 14.1694 21.9951 13.663 21.9951C13.1566 21.9951 12.7461 22.4049 12.7461 22.9105C12.7461 23.4161 13.1566 23.8259 13.663 23.8259Z" fill="#D71F85"/>
<path d="M10.5688 24.0187C11.1817 24.0187 11.6787 23.5227 11.6787 22.9108C11.6787 22.2988 11.1817 21.8027 10.5688 21.8027C9.95586 21.8027 9.45898 22.2988 9.45898 22.9108C9.45898 23.5227 9.95586 24.0187 10.5688 24.0187Z" fill="#D71F85"/>
<path d="M7.47407 24.2046C8.19002 24.2046 8.77041 23.6252 8.77041 22.9104C8.77041 22.1956 8.19002 21.6162 7.47407 21.6162C6.75813 21.6162 6.17773 22.1956 6.17773 22.9104C6.17773 23.6252 6.75813 24.2046 7.47407 24.2046Z" fill="#D71F85"/>
<path d="M4.38002 24.3792C5.19286 24.3792 5.85184 23.7213 5.85184 22.9098C5.85184 22.0983 5.19286 21.4404 4.38002 21.4404C3.56716 21.4404 2.9082 22.0983 2.9082 22.9098C2.9082 23.7213 3.56716 24.3792 4.38002 24.3792Z" fill="#D71F85"/>
<path d="M1.28344 24.0066C1.88979 24.0066 2.38133 23.5159 2.38133 22.9105C2.38133 22.3052 1.88979 21.8145 1.28344 21.8145C0.677088 21.8145 0.185547 22.3052 0.185547 22.9105C0.185547 23.5159 0.677088 24.0066 1.28344 24.0066Z" fill="#D71F85"/>
<path d="M22.9478 26.2385C23.0802 26.2385 23.1876 26.1314 23.1876 25.9992C23.1876 25.8669 23.0802 25.7598 22.9478 25.7598C22.8153 25.7598 22.708 25.8669 22.708 25.9992C22.708 26.1314 22.8153 26.2385 22.9478 26.2385Z" fill="#D71F85"/>
<path d="M19.8528 26.46C20.1075 26.46 20.314 26.2538 20.314 25.9995C20.314 25.7452 20.1075 25.5391 19.8528 25.5391C19.5981 25.5391 19.3916 25.7452 19.3916 25.9995C19.3916 26.2538 19.5981 26.46 19.8528 26.46Z" fill="#D71F85"/>
<path d="M16.7591 26.6752C17.1331 26.6752 17.4363 26.3726 17.4363 25.9992C17.4363 25.6259 17.1331 25.3232 16.7591 25.3232C16.3852 25.3232 16.082 25.6259 16.082 25.9992C16.082 26.3726 16.3852 26.6752 16.7591 26.6752Z" fill="#D71F85"/>
<path d="M13.6639 26.8853C14.154 26.8853 14.5514 26.4886 14.5514 25.9993C14.5514 25.51 14.154 25.1133 13.6639 25.1133C13.1737 25.1133 12.7764 25.51 12.7764 25.9993C12.7764 26.4886 13.1737 26.8853 13.6639 26.8853Z" fill="#D71F85"/>
<path d="M10.5696 27.0955C11.1759 27.0955 11.6675 26.6047 11.6675 25.9994C11.6675 25.394 11.1759 24.9033 10.5696 24.9033C9.96325 24.9033 9.47168 25.394 9.47168 25.9994C9.47168 26.6047 9.96325 27.0955 10.5696 27.0955Z" fill="#D71F85"/>
<path d="M7.47384 27.2823C8.18318 27.2823 8.75823 26.7082 8.75823 26C8.75823 25.2919 8.18318 24.7178 7.47384 24.7178C6.7645 24.7178 6.18945 25.2919 6.18945 26C6.18945 26.7082 6.7645 27.2823 7.47384 27.2823Z" fill="#D71F85"/>
<path d="M1.2844 27.2823C1.99374 27.2823 2.56879 26.7082 2.56879 26C2.56879 25.2919 1.99374 24.7178 1.2844 24.7178C0.575044 24.7178 0 25.2919 0 26C0 26.7082 0.575044 27.2823 1.2844 27.2823Z" fill="#D71F85"/>
<path d="M4.37979 27.4569C5.18606 27.4569 5.83969 26.8044 5.83969 25.9994C5.83969 25.1945 5.18606 24.542 4.37979 24.542C3.57353 24.542 2.91992 25.1945 2.91992 25.9994C2.91992 26.8044 3.57353 27.4569 4.37979 27.4569Z" fill="#D71F85"/>
<path d="M19.8528 20.4671C20.2105 20.4671 20.5005 20.1776 20.5005 19.8204C20.5005 19.4633 20.2105 19.1738 19.8528 19.1738C19.4951 19.1738 19.2051 19.4633 19.2051 19.8204C19.2051 20.1776 19.4951 20.4671 19.8528 20.4671Z" fill="#D71F85"/>
<path d="M19.8533 17.5407C20.3013 17.5407 20.6645 17.1781 20.6645 16.7308C20.6645 16.2835 20.3013 15.9209 19.8533 15.9209C19.4052 15.9209 19.042 16.2835 19.042 16.7308C19.042 17.1781 19.4052 17.5407 19.8533 17.5407Z" fill="#D71F85"/>
<path d="M19.8526 14.6316C20.4006 14.6316 20.8448 14.1881 20.8448 13.641C20.8448 13.0939 20.4006 12.6504 19.8526 12.6504C19.3046 12.6504 18.8604 13.0939 18.8604 13.641C18.8604 14.1881 19.3046 14.6316 19.8526 14.6316Z" fill="#D71F85"/>
<path d="M19.8533 11.7173C20.4982 11.7173 21.021 11.1954 21.021 10.5515C21.021 9.90769 20.4982 9.38574 19.8533 9.38574C19.2084 9.38574 18.6855 9.90769 18.6855 10.5515C18.6855 11.1954 19.2084 11.7173 19.8533 11.7173Z" fill="#D71F85"/>
<path d="M19.853 8.80304C20.5948 8.80304 21.1961 8.20267 21.1961 7.46204C21.1961 6.72146 20.5948 6.12109 19.853 6.12109C19.1111 6.12109 18.5098 6.72146 18.5098 7.46204C18.5098 8.20267 19.1111 8.80304 19.853 8.80304Z" fill="#D71F85"/>
<path d="M19.8531 5.86617C20.6882 5.86617 21.3653 5.19022 21.3653 4.35643C21.3653 3.52261 20.6882 2.84668 19.8531 2.84668C19.0178 2.84668 18.3408 3.52261 18.3408 4.35643C18.3408 5.19022 19.0178 5.86617 19.8531 5.86617Z" fill="#D71F85"/>
<path d="M19.8526 2.09123C20.2976 2.09123 20.6583 1.73109 20.6583 1.28682C20.6583 0.842568 20.2976 0.482422 19.8526 0.482422C19.4076 0.482422 19.0469 0.842568 19.0469 1.28682C19.0469 1.73109 19.4076 2.09123 19.8526 2.09123Z" fill="#D71F85"/>
<path d="M16.7585 20.6305C17.2066 20.6305 17.5698 20.2679 17.5698 19.8206C17.5698 19.3733 17.2066 19.0107 16.7585 19.0107C16.3105 19.0107 15.9473 19.3733 15.9473 19.8206C15.9473 20.2679 16.3105 20.6305 16.7585 20.6305Z" fill="#D71F85"/>
<path d="M13.6631 20.8112C14.2111 20.8112 14.6554 20.3677 14.6554 19.8206C14.6554 19.2736 14.2111 18.8301 13.6631 18.8301C13.1151 18.8301 12.6709 19.2736 12.6709 19.8206C12.6709 20.3677 13.1151 20.8112 13.6631 20.8112Z" fill="#D71F85"/>
<path d="M10.5691 20.9859C11.214 20.9859 11.7368 20.4639 11.7368 19.8201C11.7368 19.1762 11.214 18.6543 10.5691 18.6543C9.92414 18.6543 9.40137 19.1762 9.40137 19.8201C9.40137 20.4639 9.92414 20.9859 10.5691 20.9859Z" fill="#D71F85"/>
<path d="M7.47407 21.1614C8.21587 21.1614 8.81728 20.5611 8.81728 19.8205C8.81728 19.0799 8.21587 18.4795 7.47407 18.4795C6.73222 18.4795 6.13086 19.0799 6.13086 19.8205C6.13086 20.5611 6.73222 21.1614 7.47407 21.1614Z" fill="#D71F85"/>
<path d="M4.3638 21.33C5.199 21.33 5.87602 20.6541 5.87602 19.8203C5.87602 18.9865 5.199 18.3105 4.3638 18.3105C3.52861 18.3105 2.85156 18.9865 2.85156 19.8203C2.85156 20.6541 3.52861 21.33 4.3638 21.33Z" fill="#D71F85"/>
<path d="M1.28913 20.6244C1.73412 20.6244 2.09486 20.2643 2.09486 19.82C2.09486 19.3758 1.73412 19.0156 1.28913 19.0156C0.844134 19.0156 0.483398 19.3758 0.483398 19.82C0.483398 20.2643 0.844134 20.6244 1.28913 20.6244Z" fill="#D71F85"/>
<path d="M16.7588 17.6756C17.2814 17.6756 17.7051 17.2526 17.7051 16.7309C17.7051 16.2091 17.2814 15.7861 16.7588 15.7861C16.2361 15.7861 15.8125 16.2091 15.8125 16.7309C15.8125 17.2526 16.2361 17.6756 16.7588 17.6756Z" fill="#D71F85"/>
<path d="M16.7583 14.732C17.3617 14.732 17.8507 14.2437 17.8507 13.6413C17.8507 13.039 17.3617 12.5508 16.7583 12.5508C16.1551 12.5508 15.666 13.039 15.666 13.6413C15.666 14.2437 16.1551 14.732 16.7583 14.732Z" fill="#D71F85"/>
<path d="M16.7589 11.8047C17.452 11.8047 18.0139 11.2437 18.0139 10.5517C18.0139 9.85978 17.452 9.29883 16.7589 9.29883C16.0658 9.29883 15.5039 9.85978 15.5039 10.5517C15.5039 11.2437 16.0658 11.8047 16.7589 11.8047Z" fill="#D71F85"/>
<path d="M16.7591 8.86701C17.5364 8.86701 18.1666 8.23785 18.1666 7.4618C18.1666 6.68575 17.5364 6.05664 16.7591 6.05664C15.9817 6.05664 15.3516 6.68575 15.3516 7.4618C15.3516 8.23785 15.9817 8.86701 16.7591 8.86701Z" fill="#D71F85"/>
<path d="M16.7582 5.90007C17.603 5.90007 18.2879 5.21631 18.2879 4.37288C18.2879 3.52944 17.603 2.8457 16.7582 2.8457C15.9134 2.8457 15.2285 3.52944 15.2285 4.37288C15.2285 5.21631 15.9134 5.90007 16.7582 5.90007Z" fill="#D71F85"/>
<path d="M16.7588 1.59087C16.9298 1.59087 17.0684 1.45248 17.0684 1.28176C17.0684 1.11105 16.9298 0.972656 16.7588 0.972656C16.5878 0.972656 16.4492 1.11105 16.4492 1.28176C16.4492 1.45248 16.5878 1.59087 16.7588 1.59087Z" fill="#D71F85"/>
<path d="M13.6637 17.8218C14.267 17.8218 14.756 17.3335 14.756 16.7312C14.756 16.1289 14.267 15.6406 13.6637 15.6406C13.0604 15.6406 12.5713 16.1289 12.5713 16.7312C12.5713 17.3335 13.0604 17.8218 13.6637 17.8218Z" fill="#D71F85"/>
<path d="M10.5695 17.9844C11.2626 17.9844 11.8244 17.4234 11.8244 16.7314C11.8244 16.0395 11.2626 15.4785 10.5695 15.4785C9.87634 15.4785 9.31445 16.0395 9.31445 16.7314C9.31445 17.4234 9.87634 17.9844 10.5695 17.9844Z" fill="#D71F85"/>
<path d="M7.47393 18.1365C8.25126 18.1365 8.88141 17.5074 8.88141 16.7314C8.88141 15.9553 8.25126 15.3262 7.47393 15.3262C6.69656 15.3262 6.06641 15.9553 6.06641 16.7314C6.06641 17.5074 6.69656 18.1365 7.47393 18.1365Z" fill="#D71F85"/>
<path d="M4.37931 18.2585C5.22412 18.2585 5.909 17.5747 5.909 16.7313C5.909 15.8879 5.22412 15.2041 4.37931 15.2041C3.53448 15.2041 2.84961 15.8879 2.84961 16.7313C2.84961 17.5747 3.53448 18.2585 4.37931 18.2585Z" fill="#D71F85"/>
<path d="M1.28325 17.0401C1.45424 17.0401 1.59286 16.9017 1.59286 16.7309C1.59286 16.5602 1.45424 16.4219 1.28325 16.4219C1.11225 16.4219 0.973633 16.5602 0.973633 16.7309C0.973633 16.9017 1.11225 17.0401 1.28325 17.0401Z" fill="#D71F85"/>
<path d="M1.28391 13.7384C1.33769 13.7384 1.38129 13.6949 1.38129 13.6412C1.38129 13.5875 1.33769 13.5439 1.28391 13.5439C1.23012 13.5439 1.18652 13.5875 1.18652 13.6412C1.18652 13.6949 1.23012 13.7384 1.28391 13.7384Z" fill="#D71F85"/>
<path d="M1.28391 38.4562C1.33769 38.4562 1.38129 38.4126 1.38129 38.3589C1.38129 38.3052 1.33769 38.2617 1.28391 38.2617C1.23012 38.2617 1.18652 38.3052 1.18652 38.3589C1.18652 38.4126 1.23012 38.4562 1.28391 38.4562Z" fill="#D71F85"/>
<path d="M50.8018 13.7384C50.8552 13.7384 50.899 13.6949 50.899 13.6412C50.899 13.5875 50.8552 13.5439 50.8018 13.5439C50.7478 13.5439 50.7041 13.5875 50.7041 13.6412C50.7041 13.6949 50.7478 13.7384 50.8018 13.7384Z" fill="#D71F85"/>
<path d="M50.8018 38.4562C50.8552 38.4562 50.899 38.4126 50.899 38.3589C50.899 38.3052 50.8552 38.2617 50.8018 38.2617C50.7478 38.2617 50.7041 38.3052 50.7041 38.3589C50.7041 38.4126 50.7478 38.4562 50.8018 38.4562Z" fill="#D71F85"/>
<path d="M38.4216 1.38C38.4754 1.38 38.519 1.33647 38.519 1.28277C38.519 1.22908 38.4754 1.18555 38.4216 1.18555C38.3678 1.18555 38.3242 1.22908 38.3242 1.28277C38.3242 1.33647 38.3678 1.38 38.4216 1.38Z" fill="#D71F85"/>
<path d="M13.6638 1.38C13.7176 1.38 13.7612 1.33647 13.7612 1.28277C13.7612 1.22908 13.7176 1.18555 13.6638 1.18555C13.61 1.18555 13.5664 1.22908 13.5664 1.28277C13.5664 1.33647 13.61 1.38 13.6638 1.38Z" fill="#D71F85"/>
<path d="M38.4216 50.8156C38.4754 50.8156 38.519 50.772 38.519 50.7181C38.519 50.6647 38.4754 50.6211 38.4216 50.6211C38.3678 50.6211 38.3242 50.6647 38.3242 50.7181C38.3242 50.772 38.3678 50.8156 38.4216 50.8156Z" fill="#D71F85"/>
<path d="M13.6638 50.8156C13.7176 50.8156 13.7612 50.772 13.7612 50.7181C13.7612 50.6647 13.7176 50.6211 13.6638 50.6211C13.61 50.6211 13.5664 50.6647 13.5664 50.7181C13.5664 50.772 13.61 50.8156 13.6638 50.8156Z" fill="#D71F85"/>
<path d="M13.6634 14.859C14.3372 14.859 14.8835 14.3137 14.8835 13.641C14.8835 12.9682 14.3372 12.4229 13.6634 12.4229C12.9896 12.4229 12.4434 12.9682 12.4434 13.641C12.4434 14.3137 12.9896 14.859 13.6634 14.859Z" fill="#D71F85"/>
<path d="M13.6634 11.9102C14.4149 11.9102 15.024 11.302 15.024 10.5518C15.024 9.80153 14.4149 9.19336 13.6634 9.19336C12.912 9.19336 12.3027 9.80153 12.3027 10.5518C12.3027 11.302 12.912 11.9102 13.6634 11.9102Z" fill="#D71F85"/>
<path d="M13.6634 8.95949C14.492 8.95949 15.1637 8.28892 15.1637 7.4617C15.1637 6.63444 14.492 5.96387 13.6634 5.96387C12.8348 5.96387 12.1631 6.63444 12.1631 7.4617C12.1631 8.28892 12.8348 8.95949 13.6634 8.95949Z" fill="#D71F85"/>
<path d="M13.6633 5.51714C14.2955 5.51714 14.808 5.0055 14.808 4.3743C14.808 3.74312 14.2955 3.23145 13.6633 3.23145C13.0311 3.23145 12.5186 3.74312 12.5186 4.3743C12.5186 5.0055 13.0311 5.51714 13.6633 5.51714Z" fill="#D71F85"/>
<path d="M10.5687 14.999C11.3201 14.999 11.9293 14.3909 11.9293 13.6406C11.9293 12.8904 11.3201 12.2822 10.5687 12.2822C9.81723 12.2822 9.20801 12.8904 9.20801 13.6406C9.20801 14.3909 9.81723 14.999 10.5687 14.999Z" fill="#D71F85"/>
<path d="M7.47398 15.1392C8.30255 15.1392 8.97427 14.4686 8.97427 13.6414C8.97427 12.8142 8.30255 12.1436 7.47398 12.1436C6.64536 12.1436 5.97363 12.8142 5.97363 13.6414C5.97363 14.4686 6.64536 15.1392 7.47398 15.1392Z" fill="#D71F85"/>
<path d="M4.38107 14.7838C5.01329 14.7838 5.52583 14.2721 5.52583 13.6409C5.52583 13.0097 5.01329 12.498 4.38107 12.498C3.74885 12.498 3.23633 13.0097 3.23633 13.6409C3.23633 14.2721 3.74885 14.7838 4.38107 14.7838Z" fill="#D71F85"/>
<path d="M10.5691 12.0269C11.385 12.0269 12.0464 11.3666 12.0464 10.552C12.0464 9.7375 11.385 9.07715 10.5691 9.07715C9.75324 9.07715 9.0918 9.7375 9.0918 10.552C9.0918 11.3666 9.75324 12.0269 10.5691 12.0269Z" fill="#D71F85"/>
<path d="M10.5691 8.86005C11.3429 8.86005 11.9701 8.23378 11.9701 7.4613C11.9701 6.68878 11.3429 6.0625 10.5691 6.0625C9.79528 6.0625 9.16797 6.68878 9.16797 7.4613C9.16797 8.23378 9.79528 8.86005 10.5691 8.86005Z" fill="#D71F85"/>
<path d="M7.47435 11.9508C8.2481 11.9508 8.87541 11.3246 8.87541 10.5521C8.87541 9.7796 8.2481 9.15332 7.47435 9.15332C6.70055 9.15332 6.07324 9.7796 6.07324 10.5521C6.07324 11.3246 6.70055 11.9508 7.47435 11.9508Z" fill="#D71F85"/>
<path d="M4.37921 10.7792C4.50505 10.7792 4.60706 10.6773 4.60706 10.5517C4.60706 10.4261 4.50505 10.3242 4.37921 10.3242C4.25338 10.3242 4.15137 10.4261 4.15137 10.5517C4.15137 10.6773 4.25338 10.7792 4.37921 10.7792Z" fill="#D71F85"/>
<path d="M10.5687 4.59947C10.6945 4.59947 10.7965 4.49763 10.7965 4.372C10.7965 4.24637 10.6945 4.14453 10.5687 4.14453C10.4428 4.14453 10.3408 4.24637 10.3408 4.372C10.3408 4.49763 10.4428 4.59947 10.5687 4.59947Z" fill="#D71F85"/>
<path d="M7.47344 7.80512C7.66373 7.80512 7.81797 7.65112 7.81797 7.46118C7.81797 7.27119 7.66373 7.11719 7.47344 7.11719C7.28315 7.11719 7.12891 7.27119 7.12891 7.46118C7.12891 7.65112 7.28315 7.80512 7.47344 7.80512Z" fill="#D71F85"/>
<path d="M29.1373 23.2422C29.321 23.2422 29.4699 23.0935 29.4699 22.9102C29.4699 22.7268 29.321 22.5781 29.1373 22.5781C28.9536 22.5781 28.8047 22.7268 28.8047 22.9102C28.8047 23.0935 28.9536 23.2422 29.1373 23.2422Z" fill="#D71F85"/>
<path d="M32.2333 23.4229C32.517 23.4229 32.7469 23.1933 32.7469 22.9102C32.7469 22.627 32.517 22.3975 32.2333 22.3975C31.9497 22.3975 31.7197 22.627 31.7197 22.9102C31.7197 23.1933 31.9497 23.4229 32.2333 23.4229Z" fill="#D71F85"/>
<path d="M35.3269 23.6279C35.7237 23.6279 36.0453 23.3068 36.0453 22.9106C36.0453 22.5145 35.7237 22.1934 35.3269 22.1934C34.9301 22.1934 34.6084 22.5145 34.6084 22.9106C34.6084 23.3068 34.9301 23.6279 35.3269 23.6279Z" fill="#D71F85"/>
<path d="M38.4227 23.8259C38.9291 23.8259 39.3397 23.4161 39.3397 22.9105C39.3397 22.4049 38.9291 21.9951 38.4227 21.9951C37.9163 21.9951 37.5059 22.4049 37.5059 22.9105C37.5059 23.4161 37.9163 23.8259 38.4227 23.8259Z" fill="#D71F85"/>
<path d="M41.5171 24.0187C42.13 24.0187 42.6269 23.5227 42.6269 22.9108C42.6269 22.2988 42.13 21.8027 41.5171 21.8027C40.9041 21.8027 40.4072 22.2988 40.4072 22.9108C40.4072 23.5227 40.9041 24.0187 41.5171 24.0187Z" fill="#D71F85"/>
<path d="M44.6118 24.2046C45.3278 24.2046 45.9081 23.6252 45.9081 22.9104C45.9081 22.1956 45.3278 21.6162 44.6118 21.6162C43.8958 21.6162 43.3154 22.1956 43.3154 22.9104C43.3154 23.6252 43.8958 24.2046 44.6118 24.2046Z" fill="#D71F85"/>
<path d="M47.7064 24.3792C48.5192 24.3792 49.1781 23.7213 49.1781 22.9098C49.1781 22.0983 48.5192 21.4404 47.7064 21.4404C46.8935 21.4404 46.2344 22.0983 46.2344 22.9098C46.2344 23.7213 46.8935 24.3792 47.7064 24.3792Z" fill="#D71F85"/>
<path d="M50.803 24.0066C51.4094 24.0066 51.9009 23.5159 51.9009 22.9105C51.9009 22.3052 51.4094 21.8145 50.803 21.8145C50.1966 21.8145 49.7051 22.3052 49.7051 22.9105C49.7051 23.5159 50.1966 24.0066 50.803 24.0066Z" fill="#D71F85"/>
<path d="M29.1376 20.3331C29.4213 20.3331 29.6512 20.1035 29.6512 19.8204C29.6512 19.5372 29.4213 19.3076 29.1376 19.3076C28.854 19.3076 28.624 19.5372 28.624 19.8204C28.624 20.1035 28.854 20.3331 29.1376 20.3331Z" fill="#D71F85"/>
<path d="M29.1374 17.4482C29.5342 17.4482 29.8559 17.1271 29.8559 16.7309C29.8559 16.3348 29.5342 16.0137 29.1374 16.0137C28.7406 16.0137 28.4189 16.3348 28.4189 16.7309C28.4189 17.1271 28.7406 17.4482 29.1374 17.4482Z" fill="#D71F85"/>
<path d="M29.1376 14.5564C29.644 14.5564 30.0545 14.1465 30.0545 13.641C30.0545 13.1355 29.644 12.7256 29.1376 12.7256C28.6312 12.7256 28.2207 13.1355 28.2207 13.641C28.2207 14.1465 28.6312 14.5564 29.1376 14.5564Z" fill="#D71F85"/>
<path d="M29.1381 11.6594C29.7511 11.6594 30.248 11.1633 30.248 10.5514C30.248 9.93945 29.7511 9.44336 29.1381 9.44336C28.5252 9.44336 28.0283 9.93945 28.0283 10.5514C28.0283 11.1633 28.5252 11.6594 29.1381 11.6594Z" fill="#D71F85"/>
<path d="M29.1381 8.75538C29.8541 8.75538 30.4345 8.17596 30.4345 7.46119C30.4345 6.74642 29.8541 6.16699 29.1381 6.16699C28.4222 6.16699 27.8418 6.74642 27.8418 7.46119C27.8418 8.17596 28.4222 8.75538 29.1381 8.75538Z" fill="#D71F85"/>
<path d="M29.1378 5.84211C29.9507 5.84211 30.6096 5.18422 30.6096 4.37271C30.6096 3.56119 29.9507 2.90332 29.1378 2.90332C28.3249 2.90332 27.666 3.56119 27.666 4.37271C27.666 5.18422 28.3249 5.84211 29.1378 5.84211Z" fill="#D71F85"/>
<path d="M29.1379 2.3777C29.7443 2.3777 30.2358 1.88697 30.2358 1.28163C30.2358 0.676278 29.7443 0.185547 29.1379 0.185547C28.5316 0.185547 28.04 0.676278 28.04 1.28163C28.04 1.88697 28.5316 2.3777 29.1379 2.3777Z" fill="#D71F85"/>
<path d="M26.0425 23.1497C26.1749 23.1497 26.2823 23.0425 26.2823 22.9103C26.2823 22.7781 26.1749 22.6709 26.0425 22.6709C25.9101 22.6709 25.8027 22.7781 25.8027 22.9103C25.8027 23.0425 25.9101 23.1497 26.0425 23.1497Z" fill="#D71F85"/>
<path d="M26.0423 20.2803C26.297 20.2803 26.5035 20.0741 26.5035 19.8198C26.5035 19.5655 26.297 19.3594 26.0423 19.3594C25.7876 19.3594 25.5811 19.5655 25.5811 19.8198C25.5811 20.0741 25.7876 20.2803 26.0423 20.2803Z" fill="#D71F85"/>
<path d="M26.0424 17.4066C26.4163 17.4066 26.7194 17.104 26.7194 16.7307C26.7194 16.3573 26.4163 16.0547 26.0424 16.0547C25.6684 16.0547 25.3652 16.3573 25.3652 16.7307C25.3652 17.104 25.6684 17.4066 26.0424 17.4066Z" fill="#D71F85"/>
<path d="M26.0428 14.527C26.5329 14.527 26.9303 14.1303 26.9303 13.6409C26.9303 13.1516 26.5329 12.7549 26.0428 12.7549C25.5526 12.7549 25.1553 13.1516 25.1553 13.6409C25.1553 14.1303 25.5526 14.527 26.0428 14.527Z" fill="#D71F85"/>
<path d="M26.0422 11.6482C26.6486 11.6482 27.1401 11.1575 27.1401 10.5521C27.1401 9.94676 26.6486 9.45605 26.0422 9.45605C25.4359 9.45605 24.9443 9.94676 24.9443 10.5521C24.9443 11.1575 25.4359 11.6482 26.0422 11.6482Z" fill="#D71F85"/>
<path d="M26.0422 8.74426C26.7515 8.74426 27.3266 8.17017 27.3266 7.46195C27.3266 6.75378 26.7515 6.17969 26.0422 6.17969C25.3329 6.17969 24.7578 6.75378 24.7578 7.46195C24.7578 8.17017 25.3329 8.74426 26.0422 8.74426Z" fill="#D71F85"/>
<path d="M26.0422 2.56455C26.7515 2.56455 27.3266 1.99045 27.3266 1.28227C27.3266 0.574094 26.7515 0 26.0422 0C25.3329 0 24.7578 0.574094 24.7578 1.28227C24.7578 1.99045 25.3329 2.56455 26.0422 2.56455Z" fill="#D71F85"/>
<path d="M26.0429 5.82996C26.8491 5.82996 27.5028 5.17745 27.5028 4.3725C27.5028 3.56757 26.8491 2.91504 26.0429 2.91504C25.2366 2.91504 24.583 3.56757 24.583 4.3725C24.583 5.17745 25.2366 5.82996 26.0429 5.82996Z" fill="#D71F85"/>
<path d="M32.2326 20.4671C32.5904 20.4671 32.8804 20.1776 32.8804 19.8204C32.8804 19.4633 32.5904 19.1738 32.2326 19.1738C31.8749 19.1738 31.585 19.4633 31.585 19.8204C31.585 20.1776 31.8749 20.4671 32.2326 20.4671Z" fill="#D71F85"/>
<path d="M35.3269 20.6305C35.7749 20.6305 36.1381 20.2679 36.1381 19.8206C36.1381 19.3733 35.7749 19.0107 35.3269 19.0107C34.8789 19.0107 34.5156 19.3733 34.5156 19.8206C34.5156 20.2679 34.8789 20.6305 35.3269 20.6305Z" fill="#D71F85"/>
<path d="M38.4229 20.8112C38.9709 20.8112 39.4151 20.3677 39.4151 19.8206C39.4151 19.2736 38.9709 18.8301 38.4229 18.8301C37.8749 18.8301 37.4307 19.2736 37.4307 19.8206C37.4307 20.3677 37.8749 20.8112 38.4229 20.8112Z" fill="#D71F85"/>
<path d="M41.5163 20.9859C42.1613 20.9859 42.6841 20.4639 42.6841 19.8201C42.6841 19.1762 42.1613 18.6543 41.5163 18.6543C40.8715 18.6543 40.3486 19.1762 40.3486 19.8201C40.3486 20.4639 40.8715 20.9859 41.5163 20.9859Z" fill="#D71F85"/>
<path d="M44.6118 21.1614C45.3536 21.1614 45.955 20.5611 45.955 19.8205C45.955 19.0799 45.3536 18.4795 44.6118 18.4795C43.8699 18.4795 43.2686 19.0799 43.2686 19.8205C43.2686 20.5611 43.8699 21.1614 44.6118 21.1614Z" fill="#D71F85"/>
<path d="M47.7221 21.33C48.5572 21.33 49.2343 20.6541 49.2343 19.8203C49.2343 18.9865 48.5572 18.3105 47.7221 18.3105C46.8869 18.3105 46.21 18.9865 46.21 19.8203C46.21 20.6541 46.8869 21.33 47.7221 21.33Z" fill="#D71F85"/>
<path d="M50.7971 20.6244C51.2421 20.6244 51.603 20.2643 51.603 19.82C51.603 19.3758 51.2421 19.0156 50.7971 19.0156C50.3521 19.0156 49.9912 19.3758 49.9912 19.82C49.9912 20.2643 50.3521 20.6244 50.7971 20.6244Z" fill="#D71F85"/>
<path d="M32.2331 17.5407C32.6812 17.5407 33.0443 17.1781 33.0443 16.7308C33.0443 16.2835 32.6812 15.9209 32.2331 15.9209C31.7851 15.9209 31.4219 16.2835 31.4219 16.7308C31.4219 17.1781 31.7851 17.5407 32.2331 17.5407Z" fill="#D71F85"/>
<path d="M32.2334 14.6316C32.7815 14.6316 33.2257 14.1881 33.2257 13.641C33.2257 13.0939 32.7815 12.6504 32.2334 12.6504C31.6854 12.6504 31.2412 13.0939 31.2412 13.641C31.2412 14.1881 31.6854 14.6316 32.2334 14.6316Z" fill="#D71F85"/>
<path d="M32.2331 11.7173C32.878 11.7173 33.4009 11.1954 33.4009 10.5515C33.4009 9.90769 32.878 9.38574 32.2331 9.38574C31.5882 9.38574 31.0654 9.90769 31.0654 10.5515C31.0654 11.1954 31.5882 11.7173 32.2331 11.7173Z" fill="#D71F85"/>
<path d="M32.2328 8.80304C32.9747 8.80304 33.576 8.20267 33.576 7.46204C33.576 6.72146 32.9747 6.12109 32.2328 6.12109C31.491 6.12109 30.8896 6.72146 30.8896 7.46204C30.8896 8.20267 31.491 8.80304 32.2328 8.80304Z" fill="#D71F85"/>
<path d="M32.2329 5.86617C33.0681 5.86617 33.7452 5.19022 33.7452 4.35643C33.7452 3.52261 33.0681 2.84668 32.2329 2.84668C31.3978 2.84668 30.7207 3.52261 30.7207 4.35643C30.7207 5.19022 31.3978 5.86617 32.2329 5.86617Z" fill="#D71F85"/>
<path d="M32.2325 2.09123C32.6775 2.09123 33.0382 1.73109 33.0382 1.28682C33.0382 0.842568 32.6775 0.482422 32.2325 0.482422C31.7875 0.482422 31.4268 0.842568 31.4268 1.28682C31.4268 1.73109 31.7875 2.09123 32.2325 2.09123Z" fill="#D71F85"/>
<path d="M35.3272 17.6756C35.8498 17.6756 36.2734 17.2526 36.2734 16.7309C36.2734 16.2091 35.8498 15.7861 35.3272 15.7861C34.8045 15.7861 34.3809 16.2091 34.3809 16.7309C34.3809 17.2526 34.8045 17.6756 35.3272 17.6756Z" fill="#D71F85"/>
<path d="M38.4225 17.8218C39.0257 17.8218 39.5148 17.3335 39.5148 16.7312C39.5148 16.1289 39.0257 15.6406 38.4225 15.6406C37.8191 15.6406 37.3301 16.1289 37.3301 16.7312C37.3301 17.3335 37.8191 17.8218 38.4225 17.8218Z" fill="#D71F85"/>
<path d="M41.5167 17.9844C42.2098 17.9844 42.7717 17.4234 42.7717 16.7314C42.7717 16.0395 42.2098 15.4785 41.5167 15.4785C40.8236 15.4785 40.2617 16.0395 40.2617 16.7314C40.2617 17.4234 40.8236 17.9844 41.5167 17.9844Z" fill="#D71F85"/>
<path d="M44.6116 18.1365C45.389 18.1365 46.0191 17.5074 46.0191 16.7314C46.0191 15.9553 45.389 15.3262 44.6116 15.3262C43.8343 15.3262 43.2041 15.9553 43.2041 16.7314C43.2041 17.5074 43.8343 18.1365 44.6116 18.1365Z" fill="#D71F85"/>
<path d="M47.7065 18.2585C48.5515 18.2585 49.236 17.5747 49.236 16.7313C49.236 15.8879 48.5515 15.2041 47.7065 15.2041C46.8616 15.2041 46.1768 15.8879 46.1768 16.7313C46.1768 17.5747 46.8616 18.2585 47.7065 18.2585Z" fill="#D71F85"/>
<path d="M50.8029 17.0401C50.974 17.0401 51.1126 16.9017 51.1126 16.7309C51.1126 16.5602 50.974 16.4219 50.8029 16.4219C50.6317 16.4219 50.4932 16.5602 50.4932 16.7309C50.4932 16.9017 50.6317 17.0401 50.8029 17.0401Z" fill="#D71F85"/>
<path d="M35.3268 14.732C35.9301 14.732 36.4191 14.2437 36.4191 13.6413C36.4191 13.039 35.9301 12.5508 35.3268 12.5508C34.7234 12.5508 34.2344 13.039 34.2344 13.6413C34.2344 14.2437 34.7234 14.732 35.3268 14.732Z" fill="#D71F85"/>
<path d="M35.3273 11.8047C36.0204 11.8047 36.5823 11.2437 36.5823 10.5517C36.5823 9.85978 36.0204 9.29883 35.3273 9.29883C34.6341 9.29883 34.0723 9.85978 34.0723 10.5517C34.0723 11.2437 34.6341 11.8047 35.3273 11.8047Z" fill="#D71F85"/>
<path d="M35.3274 8.86701C36.1048 8.86701 36.7349 8.23785 36.7349 7.4618C36.7349 6.68575 36.1048 6.05664 35.3274 6.05664C34.5501 6.05664 33.9199 6.68575 33.9199 7.4618C33.9199 8.23785 34.5501 8.86701 35.3274 8.86701Z" fill="#D71F85"/>
<path d="M35.3275 5.90007C36.1724 5.90007 36.8572 5.21631 36.8572 4.37288C36.8572 3.52944 36.1724 2.8457 35.3275 2.8457C34.4827 2.8457 33.7979 3.52944 33.7979 4.37288C33.7979 5.21631 34.4827 5.90007 35.3275 5.90007Z" fill="#D71F85"/>
<path d="M35.3272 1.59087C35.4982 1.59087 35.6368 1.45248 35.6368 1.28176C35.6368 1.11105 35.4982 0.972656 35.3272 0.972656C35.1562 0.972656 35.0176 1.11105 35.0176 1.28176C35.0176 1.45248 35.1562 1.59087 35.3272 1.59087Z" fill="#D71F85"/>
<path d="M38.4222 14.859C39.0961 14.859 39.6423 14.3137 39.6423 13.641C39.6423 12.9682 39.0961 12.4229 38.4222 12.4229C37.7484 12.4229 37.2021 12.9682 37.2021 13.641C37.2021 14.3137 37.7484 14.859 38.4222 14.859Z" fill="#D71F85"/>
<path d="M41.5169 14.999C42.2684 14.999 42.8776 14.3909 42.8776 13.6406C42.8776 12.8904 42.2684 12.2822 41.5169 12.2822C40.7654 12.2822 40.1562 12.8904 40.1562 13.6406C40.1562 14.3909 40.7654 14.999 41.5169 14.999Z" fill="#D71F85"/>
<path d="M44.6116 15.1392C45.4402 15.1392 46.1119 14.4686 46.1119 13.6414C46.1119 12.8142 45.4402 12.1436 44.6116 12.1436C43.7831 12.1436 43.1113 12.8142 43.1113 13.6414C43.1113 14.4686 43.7831 15.1392 44.6116 15.1392Z" fill="#D71F85"/>
<path d="M47.7044 14.7838C48.3364 14.7838 48.8489 14.2721 48.8489 13.6409C48.8489 13.0097 48.3364 12.498 47.7044 12.498C47.072 12.498 46.5596 13.0097 46.5596 13.6409C46.5596 14.2721 47.072 14.7838 47.7044 14.7838Z" fill="#D71F85"/>
<path d="M38.4222 11.9102C39.1736 11.9102 39.7828 11.302 39.7828 10.5518C39.7828 9.80153 39.1736 9.19336 38.4222 9.19336C37.6707 9.19336 37.0615 9.80153 37.0615 10.5518C37.0615 11.302 37.6707 11.9102 38.4222 11.9102Z" fill="#D71F85"/>
<path d="M38.4222 8.95949C39.2508 8.95949 39.9225 8.28892 39.9225 7.4617C39.9225 6.63444 39.2508 5.96387 38.4222 5.96387C37.5936 5.96387 36.9219 6.63444 36.9219 7.4617C36.9219 8.28892 37.5936 8.95949 38.4222 8.95949Z" fill="#D71F85"/>
<path d="M38.4221 5.51714C39.0543 5.51714 39.5668 5.0055 39.5668 4.3743C39.5668 3.74312 39.0543 3.23145 38.4221 3.23145C37.7898 3.23145 37.2773 3.74312 37.2773 4.3743C37.2773 5.0055 37.7898 5.51714 38.4221 5.51714Z" fill="#D71F85"/>
<path d="M41.5164 12.0269C42.3323 12.0269 42.9938 11.3666 42.9938 10.552C42.9938 9.7375 42.3323 9.07715 41.5164 9.07715C40.7005 9.07715 40.0391 9.7375 40.0391 10.552C40.0391 11.3666 40.7005 12.0269 41.5164 12.0269Z" fill="#D71F85"/>
<path d="M44.612 11.9508C45.3858 11.9508 46.0131 11.3246 46.0131 10.5521C46.0131 9.7796 45.3858 9.15332 44.612 9.15332C43.8382 9.15332 43.2109 9.7796 43.2109 10.5521C43.2109 11.3246 43.8382 11.9508 44.612 11.9508Z" fill="#D71F85"/>
<path d="M41.5173 8.86005C42.2911 8.86005 42.9184 8.23378 42.9184 7.4613C42.9184 6.68878 42.2911 6.0625 41.5173 6.0625C40.7435 6.0625 40.1162 6.68878 40.1162 7.4613C40.1162 8.23378 40.7435 8.86005 41.5173 8.86005Z" fill="#D71F85"/>
<path d="M41.5169 4.59947C41.6427 4.59947 41.7447 4.49763 41.7447 4.372C41.7447 4.24637 41.6427 4.14453 41.5169 4.14453C41.391 4.14453 41.2891 4.24637 41.2891 4.372C41.2891 4.49763 41.391 4.59947 41.5169 4.59947Z" fill="#D71F85"/>
<path d="M47.7064 10.7792C47.8319 10.7792 47.9342 10.6773 47.9342 10.5517C47.9342 10.4261 47.8319 10.3242 47.7064 10.3242C47.5804 10.3242 47.4785 10.4261 47.4785 10.5517C47.4785 10.6773 47.5804 10.7792 47.7064 10.7792Z" fill="#D71F85"/>
<path d="M44.6121 7.80512C44.8023 7.80512 44.9566 7.65112 44.9566 7.46118C44.9566 7.27119 44.8023 7.11719 44.6121 7.11719C44.4218 7.11719 44.2676 7.27119 44.2676 7.46118C44.2676 7.65112 44.4218 7.80512 44.6121 7.80512Z" fill="#D71F85"/>
<path d="M26.0427 26.0968C26.0964 26.0968 26.1401 26.0532 26.1401 25.9996C26.1401 25.9458 26.0964 25.9023 26.0427 25.9023C25.9889 25.9023 25.9453 25.9458 25.9453 25.9996C25.9453 26.0532 25.9889 26.0968 26.0427 26.0968Z" fill="#D71F85"/>
</g>
<defs>
<clipPath id="clip0_1032_3356">
<rect width="113" height="52" fill="white"/>
</clipPath>
</defs>
</svg>
